<?xml version="1.0" standalone="no"?>
<!DOCTYPE svg PUBLIC "-//W3C//DTD SVG 20010904//EN"
 "http://www.w3.org/TR/2001/REC-SVG-20010904/DTD/svg10.dtd">
<svg version="1.0" xmlns="http://www.w3.org/2000/svg"
 width="300.000000pt" height="300.000000pt" viewBox="0 0 300.000000 300.000000"
 preserveAspectRatio="xMidYMid meet">
<metadata>
Created by potrace 1.10, written by Peter Selinger 2001-2011
</metadata>
<g transform="translate(0.000000,300.000000) scale(0.100000,-0.100000)"
fill="#000000" stroke="none">
<path d="M1846 2170 c-34 -14 -54 -16 -67 -10 -28 15 -46 12 -91 -16 -34 -21
-45 -24 -60 -15 -29 18 -42 13 -83 -29 -30 -31 -42 -37 -56 -30 -20 11 -33 -2
-43 -43 -6 -24 -11 -28 -31 -23 -51 13 -67 -58 -41 -182 12 -61 12 -62 -8 -56
-88 27 -233 159 -275 251 -26 56 -41 60 -41 11 0 -17 -8 -37 -17 -44 -17 -13
-17 -15 0 -28 19 -14 23 -36 7 -36 -18 0 -10 -23 17 -52 15 -16 27 -40 28 -55
0 -30 39 -58 125 -89 57 -22 90 -48 42 -35 -41 12 -42 0 -3 -60 55 -85 102
-112 216 -124 100 -11 109 -17 101 -71 -6 -45 -6 -45 16 -29 13 8 30 15 38 15
29 0 60 39 60 75 0 45 -48 99 -124 140 -31 17 -56 33 -56 36 0 4 10 9 23 13
38 9 110 80 141 137 86 160 155 224 299 279 108 42 119 54 42 47 -33 -3 -71
-9 -85 -13 -24 -7 -24 -7 -7 10 9 10 17 24 17 32 0 19 -25 17 -84 -6z m24 -65
c-7 -8 -18 -15 -24 -15 -29 0 -134 -119 -185 -210 -56 -99 -82 -130 -131 -155
-16 -8 -36 -25 -44 -36 -20 -30 -6 -49 75 -102 66 -44 94 -86 71 -109 -8 -8
-21 -2 -52 25 -28 26 -50 37 -73 38 -96 2 -163 28 -200 76 -20 28 -26 44 -22
64 7 31 -12 49 -97 94 -44 23 -58 37 -81 83 -18 38 -24 59 -17 66 7 7 16 2 27
-14 35 -52 107 -113 169 -146 78 -41 87 -41 112 -9 16 20 18 32 11 67 -4 24
-8 62 -9 85 0 37 4 44 29 58 17 8 36 23 43 33 7 11 27 26 43 35 17 8 41 26 54
39 19 18 33 22 62 20 27 -3 49 3 73 17 26 16 44 20 73 16 21 -3 52 -2 68 3 33
10 44 0 25 -23z"/>
<path d="M1781 1959 c-16 -16 -51 -68 -77 -115 -43 -76 -97 -139 -150 -171
-17 -11 -16 -12 11 -12 34 -1 52 10 140 83 89 73 187 115 301 129 52 6 94 14
94 18 0 10 -44 19 -102 21 l-47 2 21 23 c19 20 19 23 4 29 -9 3 -43 4 -76 2
-45 -3 -60 -1 -60 9 0 23 -29 14 -59 -18z m112 -29 c58 0 41 -20 -48 -57 -44
-19 -85 -36 -91 -39 -6 -3 -11 2 -11 11 0 8 7 15 14 15 8 0 12 4 9 9 -4 5 6
24 20 41 20 23 33 30 48 26 12 -3 38 -6 59 -6z"/>
<path d="M1567 1262 c7 -49 -14 -72 -66 -72 -66 0 -144 -19 -183 -45 -31 -21
-98 -113 -98 -137 0 -4 12 -8 28 -10 22 -2 15 -8 -45 -31 -93 -36 -126 -62
-120 -93 3 -16 -5 -31 -24 -50 -31 -30 -37 -50 -16 -57 8 -3 6 -10 -8 -26 -19
-22 -19 -24 -2 -36 10 -7 17 -25 17 -43 0 -42 16 -48 29 -11 16 47 94 151 143
191 41 34 138 88 156 88 5 0 3 -26 -4 -57 -28 -120 -13 -191 39 -181 23 4 27
1 34 -31 7 -30 13 -36 36 -36 17 -1 41 -14 65 -38 40 -40 62 -46 81 -23 11 13
19 10 59 -15 49 -31 71 -36 89 -18 9 9 20 8 45 -1 59 -22 98 -28 104 -18 4 5
1 15 -5 21 -20 20 -12 26 21 16 42 -12 118 -12 118 0 0 5 -24 17 -52 26 -85
28 -186 85 -231 131 -24 23 -64 81 -90 128 -53 95 -101 147 -158 173 l-39 17
63 33 c78 41 127 92 127 132 0 47 -10 62 -59 84 -25 12 -49 23 -53 25 -3 2 -4
-14 -1 -36z m63 -90 c-9 -15 -45 -49 -80 -75 -95 -71 -96 -75 -22 -128 48 -34
102 -88 102 -101 0 -17 77 -136 114 -176 22 -24 66 -62 98 -84 32 -23 58 -42
58 -43 0 -10 -181 10 -205 23 -16 8 -46 14 -66 14 -27 -1 -47 6 -74 28 -21 17
-41 30 -44 30 -3 0 -30 22 -60 49 l-54 49 10 75 c15 123 -13 148 -113 102 -40
-18 -82 -50 -132 -101 -54 -55 -74 -70 -78 -59 -4 9 1 24 10 34 9 9 21 32 27
50 9 25 25 39 79 66 84 42 97 58 78 97 -6 13 2 28 34 61 44 46 101 67 181 67
38 0 91 30 107 61 11 20 13 20 28 5 15 -15 15 -19 2 -44z"/>
<path d="M1587 993 c59 -45 61 -48 122 -153 27 -47 64 -98 81 -115 28 -27 33
-28 44 -13 10 13 24 15 78 11 73 -6 91 5 58 35 -21 19 -20 19 46 25 70 5 105
22 63 31 -13 3 -54 7 -91 10 -89 7 -175 44 -266 113 -106 83 -124 93 -155 93
-28 0 -27 -1 20 -37z m303 -193 c14 -3 26 -14 28 -22 5 -24 -96 -31 -122 -9
-16 14 -56 82 -56 95 0 3 28 -9 63 -26 34 -17 73 -34 87 -38z"/>
</g>
</svg>
